<svg width="96" height="93" viewBox="0 0 96 93" fill="none" xmlns="http://www.w3.org/2000/svg">
<g filter="url(#filter0_d_144_2312)">
<rect x="10" y="8" width="76" height="73" rx="36.5" fill="#5A98F2" shape-rendering="crispEdges"/>
<path d="M38.9681 32.9904C38.656 32.7277 38.5 32.3934 38.5 31.9874C38.5 31.5815 38.656 31.2472 38.9681 30.9845L46.7978 24.394C46.9681 24.2507 47.1525 24.1495 47.351 24.0903C47.5496 24.0301 47.7624 24 47.9893 24C48.2163 24 48.429 24.0301 48.6276 24.0903C48.8262 24.1495 49.0106 24.2507 49.1808 24.394L57.0106 30.9845C57.3226 31.2472 57.4855 31.5753 57.4991 31.9688C57.5138 32.3633 57.351 32.7038 57.0106 32.9904C56.6985 33.253 56.3014 33.3844 55.8191 33.3844C55.3368 33.3844 54.9397 33.253 54.6276 32.9904L47.9893 27.4385L41.3511 32.9904C41.039 33.253 40.6486 33.3906 40.18 33.403C39.7125 33.4144 39.3085 33.2769 38.9681 32.9904ZM38.9681 41.5867C38.656 41.324 38.5 40.9897 38.5 40.5838C38.5 40.1779 38.656 39.8436 38.9681 39.5809L46.7978 32.9904C46.9681 32.8471 47.1525 32.7454 47.351 32.6852C47.5496 32.626 47.7624 32.5964 47.9893 32.5964C48.2163 32.5964 48.429 32.626 48.6276 32.6852C48.8262 32.7454 49.0106 32.8471 49.1808 32.9904L57.0106 39.5809C57.3226 39.8436 57.4855 40.1717 57.4991 40.5652C57.5138 40.9597 57.351 41.3002 57.0106 41.5867C56.6985 41.8494 56.3014 41.9807 55.8191 41.9807C55.3368 41.9807 54.9397 41.8494 54.6276 41.5867L47.9893 36.0349L41.3511 41.5867C41.039 41.8494 40.6486 41.9869 40.18 41.9993C39.7125 42.0108 39.3085 41.8733 38.9681 41.5867Z" fill="white"/>
<path d="M22.19 62.09C21.6233 62.09 21.1133 62.0167 20.66 61.87C20.2067 61.7233 19.8133 61.5167 19.48 61.25L19.8 60.51C20.0333 60.6833 20.27 60.83 20.51 60.95C20.75 61.0633 21.0067 61.15 21.28 61.21C21.56 61.2633 21.8633 61.29 22.19 61.29C22.77 61.29 23.1967 61.1867 23.47 60.98C23.75 60.7667 23.89 60.4867 23.89 60.14C23.89 59.84 23.7933 59.61 23.6 59.45C23.4067 59.29 23.07 59.1633 22.59 59.07L21.52 58.85C20.8733 58.7167 20.39 58.5 20.07 58.2C19.7567 57.8933 19.6 57.48 19.6 56.96C19.6 56.54 19.71 56.1733 19.93 55.86C20.1567 55.54 20.4667 55.2933 20.86 55.12C21.26 54.9467 21.7267 54.86 22.26 54.86C22.7533 54.86 23.21 54.9333 23.63 55.08C24.05 55.2267 24.4033 55.4433 24.69 55.73L24.37 56.44C24.07 56.1667 23.7467 55.97 23.4 55.85C23.06 55.7233 22.6733 55.66 22.24 55.66C21.7133 55.66 21.2967 55.7733 20.99 56C20.6833 56.2267 20.53 56.5333 20.53 56.92C20.53 57.2267 20.6267 57.47 20.82 57.65C21.0133 57.8233 21.3333 57.9567 21.78 58.05L22.85 58.26C23.53 58.3933 24.0267 58.6033 24.34 58.89C24.66 59.1767 24.82 59.5733 24.82 60.08C24.82 60.48 24.7133 60.8333 24.5 61.14C24.2867 61.44 23.9833 61.6733 23.59 61.84C23.1967 62.0067 22.73 62.09 22.19 62.09ZM28.1993 62.09C27.6993 62.09 27.266 61.9867 26.8993 61.78C26.5326 61.5667 26.246 61.2633 26.0393 60.87C25.8393 60.47 25.7393 59.9967 25.7393 59.45C25.7393 58.91 25.8426 58.45 26.0493 58.07C26.256 57.6833 26.5426 57.39 26.9093 57.19C27.276 56.9833 27.706 56.88 28.1993 56.88C28.526 56.88 28.8426 56.9367 29.1493 57.05C29.456 57.1567 29.706 57.3133 29.8993 57.52L29.5893 58.16C29.396 57.9733 29.1826 57.8367 28.9493 57.75C28.716 57.6567 28.486 57.61 28.2593 57.61C27.766 57.61 27.3793 57.77 27.0993 58.09C26.8193 58.4033 26.6793 58.86 26.6793 59.46C26.6793 60.0667 26.8193 60.5333 27.0993 60.86C27.3793 61.1867 27.766 61.35 28.2593 61.35C28.4793 61.35 28.706 61.3067 28.9393 61.22C29.1726 61.1333 29.3893 60.9967 29.5893 60.81L29.8993 61.44C29.6993 61.6533 29.4426 61.8167 29.1293 61.93C28.8226 62.0367 28.5126 62.09 28.1993 62.09ZM31 62V58.2C31 58 30.9933 57.7967 30.98 57.59C30.9733 57.3767 30.9567 57.17 30.93 56.97H31.81L31.92 58.23L31.77 58.24C31.8367 57.9333 31.95 57.68 32.11 57.48C32.2767 57.2733 32.4733 57.1233 32.7 57.03C32.9333 56.93 33.1733 56.88 33.42 56.88C33.5267 56.88 33.6167 56.8833 33.69 56.89C33.7633 56.8967 33.8367 56.9133 33.91 56.94L33.89 57.75C33.79 57.71 33.6967 57.6867 33.61 57.68C33.53 57.6667 33.43 57.66 33.31 57.66C33.0167 57.66 32.7633 57.7267 32.55 57.86C32.3433 57.9933 32.1833 58.17 32.07 58.39C31.9633 58.61 31.91 58.8467 31.91 59.1V62H31ZM36.7628 62.09C36.2695 62.09 35.8428 61.9867 35.4828 61.78C35.1228 61.5667 34.8428 61.2667 34.6428 60.88C34.4428 60.4867 34.3428 60.02 34.3428 59.48C34.3428 58.9467 34.4428 58.4867 34.6428 58.1C34.8428 57.7067 35.1228 57.4067 35.4828 57.2C35.8428 56.9867 36.2695 56.88 36.7628 56.88C37.2561 56.88 37.6828 56.9867 38.0428 57.2C38.4095 57.4067 38.6895 57.7067 38.8828 58.1C39.0828 58.4867 39.1828 58.9467 39.1828 59.48C39.1828 60.02 39.0828 60.4867 38.8828 60.88C38.6895 61.2667 38.4095 61.5667 38.0428 61.78C37.6828 61.9867 37.2561 62.09 36.7628 62.09ZM36.7628 61.37C37.2161 61.37 37.5795 61.21 37.8528 60.89C38.1261 60.57 38.2628 60.1 38.2628 59.48C38.2628 58.86 38.1261 58.3933 37.8528 58.08C37.5795 57.7667 37.2161 57.61 36.7628 57.61C36.3028 57.61 35.9361 57.7667 35.6628 58.08C35.3961 58.3933 35.2628 58.86 35.2628 59.48C35.2628 60.1 35.3961 60.57 35.6628 60.89C35.9361 61.21 36.3028 61.37 36.7628 61.37ZM40.4045 62V54.64H41.3145V62H40.4045ZM42.8362 62V54.64H43.7462V62H42.8362ZM49.7845 62.09C49.2579 62.09 48.8579 61.9467 48.5845 61.66C48.3179 61.3667 48.1845 60.9267 48.1845 60.34V57.67H47.2045V56.97H48.1845V55.62L49.0945 55.37V56.97H50.5145V57.67H49.0945V60.26C49.0945 60.6467 49.1612 60.9233 49.2945 61.09C49.4345 61.25 49.6345 61.33 49.8945 61.33C50.0279 61.33 50.1412 61.32 50.2345 61.3C50.3345 61.2733 50.4245 61.2433 50.5045 61.21V61.96C50.4045 62 50.2879 62.03 50.1545 62.05C50.0279 62.0767 49.9045 62.09 49.7845 62.09ZM53.5402 62.09C53.0468 62.09 52.6202 61.9867 52.2602 61.78C51.9002 61.5667 51.6202 61.2667 51.4202 60.88C51.2202 60.4867 51.1202 60.02 51.1202 59.48C51.1202 58.9467 51.2202 58.4867 51.4202 58.1C51.6202 57.7067 51.9002 57.4067 52.2602 57.2C52.6202 56.9867 53.0468 56.88 53.5402 56.88C54.0335 56.88 54.4602 56.9867 54.8202 57.2C55.1868 57.4067 55.4668 57.7067 55.6602 58.1C55.8602 58.4867 55.9602 58.9467 55.9602 59.48C55.9602 60.02 55.8602 60.4867 55.6602 60.88C55.4668 61.2667 55.1868 61.5667 54.8202 61.78C54.4602 61.9867 54.0335 62.09 53.5402 62.09ZM53.5402 61.37C53.9935 61.37 54.3568 61.21 54.6302 60.89C54.9035 60.57 55.0402 60.1 55.0402 59.48C55.0402 58.86 54.9035 58.3933 54.6302 58.08C54.3568 57.7667 53.9935 57.61 53.5402 57.61C53.0802 57.61 52.7135 57.7667 52.4402 58.08C52.1735 58.3933 52.0402 58.86 52.0402 59.48C52.0402 60.1 52.1735 60.57 52.4402 60.89C52.7135 61.21 53.0802 61.37 53.5402 61.37ZM61.6086 62V55.74H59.1686V54.95H64.9986V55.74H62.5486V62H61.6086ZM67.2413 62.09C66.748 62.09 66.3213 61.9867 65.9613 61.78C65.6013 61.5667 65.3213 61.2667 65.1213 60.88C64.9213 60.4867 64.8213 60.02 64.8213 59.48C64.8213 58.9467 64.9213 58.4867 65.1213 58.1C65.3213 57.7067 65.6013 57.4067 65.9613 57.2C66.3213 56.9867 66.748 56.88 67.2413 56.88C67.7347 56.88 68.1613 56.9867 68.5213 57.2C68.888 57.4067 69.168 57.7067 69.3613 58.1C69.5613 58.4867 69.6613 58.9467 69.6613 59.48C69.6613 60.02 69.5613 60.4867 69.3613 60.88C69.168 61.2667 68.888 61.5667 68.5213 61.78C68.1613 61.9867 67.7347 62.09 67.2413 62.09ZM67.2413 61.37C67.6947 61.37 68.058 61.21 68.3313 60.89C68.6047 60.57 68.7413 60.1 68.7413 59.48C68.7413 58.86 68.6047 58.3933 68.3313 58.08C68.058 57.7667 67.6947 57.61 67.2413 57.61C66.7813 57.61 66.4147 57.7667 66.1413 58.08C65.8747 58.3933 65.7413 58.86 65.7413 59.48C65.7413 60.1 65.8747 60.57 66.1413 60.89C66.4147 61.21 66.7813 61.37 67.2413 61.37ZM70.883 64.16V58.16C70.883 57.9667 70.8764 57.77 70.863 57.57C70.8497 57.37 70.8297 57.17 70.803 56.97H71.683L71.793 58.13H71.683C71.783 57.7433 71.9964 57.44 72.323 57.22C72.6497 56.9933 73.0397 56.88 73.493 56.88C73.9397 56.88 74.3297 56.9833 74.663 57.19C74.9964 57.3967 75.253 57.6967 75.433 58.09C75.6197 58.4767 75.713 58.94 75.713 59.48C75.713 60.02 75.6197 60.4867 75.433 60.88C75.253 61.2733 74.9964 61.5733 74.663 61.78C74.3297 61.9867 73.9397 62.09 73.493 62.09C73.0464 62.09 72.6597 61.98 72.333 61.76C72.013 61.5333 71.7964 61.23 71.683 60.85H71.793V64.16H70.883ZM73.283 61.37C73.743 61.37 74.1097 61.21 74.383 60.89C74.6564 60.57 74.793 60.1 74.793 59.48C74.793 58.86 74.6564 58.3933 74.383 58.08C74.1097 57.7667 73.743 57.61 73.283 57.61C72.823 57.61 72.4564 57.7667 72.183 58.08C71.9164 58.3933 71.783 58.86 71.783 59.48C71.783 60.1 71.9164 60.57 72.183 60.89C72.4564 61.21 72.823 61.37 73.283 61.37Z" fill="white"/>
</g>
<defs>
<filter id="filter0_d_144_2312" x="0" y="0" width="96" height="93" filterUnits="userSpaceOnUse" color-interpolation-filters="sRGB">
<feFlood flood-opacity="0" result="BackgroundImageFix"/>
<feColorMatrix in="SourceAlpha" type="matrix" values="0 0 0 0 0 0 0 0 0 0 0 0 0 0 0 0 0 0 127 0" result="hardAlpha"/>
<feOffset dy="2"/>
<feGaussianBlur stdDeviation="5"/>
<feComposite in2="hardAlpha" operator="out"/>
<feColorMatrix type="matrix" values="0 0 0 0 0.2375 0 0 0 0 0.2375 0 0 0 0 0.2375 0 0 0 0.36 0"/>
<feBlend mode="normal" in2="BackgroundImageFix" result="effect1_dropShadow_144_2312"/>
<feBlend mode="normal" in="SourceGraphic" in2="effect1_dropShadow_144_2312" result="shape"/>
</filter>
</defs>
</svg>
