<svg width="132" height="115" viewBox="0 0 132 115" fill="none" xmlns="http://www.w3.org/2000/svg">
<g opacity="0.26">
<mask id="mask0_144_1764" style="mask-type:alpha" maskUnits="userSpaceOnUse" x="0" y="0" width="11" height="11">
<path d="M5.22838 10.425C8.11594 10.425 10.4568 8.09121 10.4568 5.21245C10.4568 2.33368 8.11594 0 5.22838 0C2.34082 0 0 2.33368 0 5.21245C0 8.09121 2.34082 10.425 5.22838 10.425Z" fill="url(#paint0_linear_144_1764)"/>
</mask>
<g mask="url(#mask0_144_1764)">
<path d="M5.22838 10.425C8.11594 10.425 10.4568 8.09121 10.4568 5.21245C10.4568 2.33368 8.11594 0 5.22838 0C2.34082 0 0 2.33368 0 5.21245C0 8.09121 2.34082 10.425 5.22838 10.425Z" fill="url(#paint1_linear_144_1764)"/>
</g>
<mask id="mask1_144_1764" style="mask-type:alpha" maskUnits="userSpaceOnUse" x="30" y="0" width="11" height="11">
<path d="M35.5094 10.425C38.397 10.425 40.7378 8.09121 40.7378 5.21245C40.7378 2.33368 38.397 0 35.5094 0C32.6218 0 30.281 2.33368 30.281 5.21245C30.281 8.09121 32.6218 10.425 35.5094 10.425Z" fill="url(#paint2_linear_144_1764)"/>
</mask>
<g mask="url(#mask1_144_1764)">
<path d="M35.5094 10.425C38.397 10.425 40.7378 8.09121 40.7378 5.21245C40.7378 2.33368 38.397 0 35.5094 0C32.6218 0 30.281 2.33368 30.281 5.21245C30.281 8.09121 32.6218 10.425 35.5094 10.425Z" fill="url(#paint3_linear_144_1764)"/>
</g>
<mask id="mask2_144_1764" style="mask-type:alpha" maskUnits="userSpaceOnUse" x="60" y="0" width="12" height="11">
<path d="M65.7905 10.425C68.6781 10.425 71.0189 8.09121 71.0189 5.21245C71.0189 2.33368 68.6781 0 65.7905 0C62.903 0 60.5621 2.33368 60.5621 5.21245C60.5621 8.09121 62.903 10.425 65.7905 10.425Z" fill="url(#paint4_linear_144_1764)"/>
</mask>
<g mask="url(#mask2_144_1764)">
<path d="M65.7905 10.425C68.6781 10.425 71.0189 8.09121 71.0189 5.21245C71.0189 2.33368 68.6781 0 65.7905 0C62.903 0 60.5621 2.33368 60.5621 5.21245C60.5621 8.09121 62.903 10.425 65.7905 10.425Z" fill="url(#paint5_linear_144_1764)"/>
</g>
<mask id="mask3_144_1764" style="mask-type:alpha" maskUnits="userSpaceOnUse" x="90" y="0" width="12" height="11">
<path d="M96.0717 10.425C98.9592 10.425 101.3 8.09121 101.3 5.21245C101.3 2.33368 98.9592 0 96.0717 0C93.1841 0 90.8433 2.33368 90.8433 5.21245C90.8433 8.09121 93.1841 10.425 96.0717 10.425Z" fill="url(#paint6_linear_144_1764)"/>
</mask>
<g mask="url(#mask3_144_1764)">
<path d="M96.0717 10.425C98.9592 10.425 101.3 8.09121 101.3 5.21245C101.3 2.33368 98.9592 0 96.0717 0C93.1841 0 90.8433 2.33368 90.8433 5.21245C90.8433 8.09121 93.1841 10.425 96.0717 10.425Z" fill="url(#paint7_linear_144_1764)"/>
</g>
<mask id="mask4_144_1764" style="mask-type:alpha" maskUnits="userSpaceOnUse" x="121" y="0" width="11" height="11">
<path d="M126.353 10.425C129.24 10.425 131.581 8.09121 131.581 5.21245C131.581 2.33368 129.24 0 126.353 0C123.465 0 121.124 2.33368 121.124 5.21245C121.124 8.09121 123.465 10.425 126.353 10.425Z" fill="url(#paint8_linear_144_1764)"/>
</mask>
<g mask="url(#mask4_144_1764)">
<path d="M126.353 10.425C129.24 10.425 131.581 8.09121 131.581 5.21245C131.581 2.33368 129.24 0 126.353 0C123.465 0 121.124 2.33368 121.124 5.21245C121.124 8.09121 123.465 10.425 126.353 10.425Z" fill="url(#paint9_linear_144_1764)"/>
</g>
<mask id="mask5_144_1764" style="mask-type:alpha" maskUnits="userSpaceOnUse" x="0" y="26" width="11" height="11">
<path d="M5.22838 36.5958C8.11594 36.5958 10.4568 34.2621 10.4568 31.3833C10.4568 28.5046 8.11594 26.1709 5.22838 26.1709C2.34082 26.1709 0 28.5046 0 31.3833C0 34.2621 2.34082 36.5958 5.22838 36.5958Z" fill="url(#paint10_linear_144_1764)"/>
</mask>
<g mask="url(#mask5_144_1764)">
<path d="M5.22838 36.5958C8.11594 36.5958 10.4568 34.2621 10.4568 31.3833C10.4568 28.5046 8.11594 26.1709 5.22838 26.1709C2.34082 26.1709 0 28.5046 0 31.3833C0 34.2621 2.34082 36.5958 5.22838 36.5958Z" fill="url(#paint11_linear_144_1764)"/>
</g>
<mask id="mask6_144_1764" style="mask-type:alpha" maskUnits="userSpaceOnUse" x="30" y="26" width="11" height="11">
<path d="M35.5094 36.5958C38.397 36.5958 40.7378 34.2621 40.7378 31.3833C40.7378 28.5046 38.397 26.1709 35.5094 26.1709C32.6218 26.1709 30.281 28.5046 30.281 31.3833C30.281 34.2621 32.6218 36.5958 35.5094 36.5958Z" fill="url(#paint12_linear_144_1764)"/>
</mask>
<g mask="url(#mask6_144_1764)">
<path d="M35.5094 36.5958C38.397 36.5958 40.7378 34.2621 40.7378 31.3833C40.7378 28.5046 38.397 26.1709 35.5094 26.1709C32.6218 26.1709 30.281 28.5046 30.281 31.3833C30.281 34.2621 32.6218 36.5958 35.5094 36.5958Z" fill="url(#paint13_linear_144_1764)"/>
</g>
<mask id="mask7_144_1764" style="mask-type:alpha" maskUnits="userSpaceOnUse" x="60" y="26" width="12" height="11">
<path d="M65.7905 36.5958C68.6781 36.5958 71.0189 34.2621 71.0189 31.3833C71.0189 28.5046 68.6781 26.1709 65.7905 26.1709C62.903 26.1709 60.5621 28.5046 60.5621 31.3833C60.5621 34.2621 62.903 36.5958 65.7905 36.5958Z" fill="url(#paint14_linear_144_1764)"/>
</mask>
<g mask="url(#mask7_144_1764)">
<path d="M65.7905 36.5958C68.6781 36.5958 71.0189 34.2621 71.0189 31.3833C71.0189 28.5046 68.6781 26.1709 65.7905 26.1709C62.903 26.1709 60.5621 28.5046 60.5621 31.3833C60.5621 34.2621 62.903 36.5958 65.7905 36.5958Z" fill="url(#paint15_linear_144_1764)"/>
</g>
<mask id="mask8_144_1764" style="mask-type:alpha" maskUnits="userSpaceOnUse" x="90" y="26" width="12" height="11">
<path d="M96.0717 36.5958C98.9592 36.5958 101.3 34.2621 101.3 31.3833C101.3 28.5046 98.9592 26.1709 96.0717 26.1709C93.1841 26.1709 90.8433 28.5046 90.8433 31.3833C90.8433 34.2621 93.1841 36.5958 96.0717 36.5958Z" fill="url(#paint16_linear_144_1764)"/>
</mask>
<g mask="url(#mask8_144_1764)">
<path d="M96.0717 36.5958C98.9592 36.5958 101.3 34.2621 101.3 31.3833C101.3 28.5046 98.9592 26.1709 96.0717 26.1709C93.1841 26.1709 90.8433 28.5046 90.8433 31.3833C90.8433 34.2621 93.1841 36.5958 96.0717 36.5958Z" fill="url(#paint17_linear_144_1764)"/>
</g>
<mask id="mask9_144_1764" style="mask-type:alpha" maskUnits="userSpaceOnUse" x="121" y="26" width="11" height="11">
<path d="M126.353 36.5958C129.24 36.5958 131.581 34.2621 131.581 31.3833C131.581 28.5046 129.24 26.1709 126.353 26.1709C123.465 26.1709 121.124 28.5046 121.124 31.3833C121.124 34.2621 123.465 36.5958 126.353 36.5958Z" fill="url(#paint18_linear_144_1764)"/>
</mask>
<g mask="url(#mask9_144_1764)">
<path d="M126.353 36.5958C129.24 36.5958 131.581 34.2621 131.581 31.3833C131.581 28.5046 129.24 26.1709 126.353 26.1709C123.465 26.1709 121.124 28.5046 121.124 31.3833C121.124 34.2621 123.465 36.5958 126.353 36.5958Z" fill="url(#paint19_linear_144_1764)"/>
</g>
<mask id="mask10_144_1764" style="mask-type:alpha" maskUnits="userSpaceOnUse" x="0" y="52" width="11" height="11">
<path d="M5.22838 62.7124C8.11594 62.7124 10.4568 60.3787 10.4568 57.5C10.4568 54.6212 8.11594 52.2875 5.22838 52.2875C2.34082 52.2875 0 54.6212 0 57.5C0 60.3787 2.34082 62.7124 5.22838 62.7124Z" fill="url(#paint20_linear_144_1764)"/>
</mask>
<g mask="url(#mask10_144_1764)">
<path d="M5.22838 62.7124C8.11594 62.7124 10.4568 60.3787 10.4568 57.5C10.4568 54.6212 8.11594 52.2875 5.22838 52.2875C2.34082 52.2875 0 54.6212 0 57.5C0 60.3787 2.34082 62.7124 5.22838 62.7124Z" fill="url(#paint21_linear_144_1764)"/>
</g>
<mask id="mask11_144_1764" style="mask-type:alpha" maskUnits="userSpaceOnUse" x="30" y="52" width="11" height="11">
<path d="M35.5094 62.7124C38.397 62.7124 40.7378 60.3787 40.7378 57.5C40.7378 54.6212 38.397 52.2875 35.5094 52.2875C32.6218 52.2875 30.281 54.6212 30.281 57.5C30.281 60.3787 32.6218 62.7124 35.5094 62.7124Z" fill="url(#paint22_linear_144_1764)"/>
</mask>
<g mask="url(#mask11_144_1764)">
<path d="M35.5094 62.7124C38.397 62.7124 40.7378 60.3787 40.7378 57.5C40.7378 54.6212 38.397 52.2875 35.5094 52.2875C32.6218 52.2875 30.281 54.6212 30.281 57.5C30.281 60.3787 32.6218 62.7124 35.5094 62.7124Z" fill="url(#paint23_linear_144_1764)"/>
</g>
<mask id="mask12_144_1764" style="mask-type:alpha" maskUnits="userSpaceOnUse" x="60" y="52" width="12" height="11">
<path d="M65.7905 62.7124C68.6781 62.7124 71.0189 60.3787 71.0189 57.5C71.0189 54.6212 68.6781 52.2875 65.7905 52.2875C62.903 52.2875 60.5621 54.6212 60.5621 57.5C60.5621 60.3787 62.903 62.7124 65.7905 62.7124Z" fill="url(#paint24_linear_144_1764)"/>
</mask>
<g mask="url(#mask12_144_1764)">
<path d="M65.7905 62.7124C68.6781 62.7124 71.0189 60.3787 71.0189 57.5C71.0189 54.6212 68.6781 52.2875 65.7905 52.2875C62.903 52.2875 60.5621 54.6212 60.5621 57.5C60.5621 60.3787 62.903 62.7124 65.7905 62.7124Z" fill="url(#paint25_linear_144_1764)"/>
</g>
<mask id="mask13_144_1764" style="mask-type:alpha" maskUnits="userSpaceOnUse" x="90" y="52" width="12" height="11">
<path d="M96.0717 62.7124C98.9592 62.7124 101.3 60.3787 101.3 57.5C101.3 54.6212 98.9592 52.2875 96.0717 52.2875C93.1841 52.2875 90.8433 54.6212 90.8433 57.5C90.8433 60.3787 93.1841 62.7124 96.0717 62.7124Z" fill="url(#paint26_linear_144_1764)"/>
</mask>
<g mask="url(#mask13_144_1764)">
<path d="M96.0717 62.7124C98.9592 62.7124 101.3 60.3787 101.3 57.5C101.3 54.6212 98.9592 52.2875 96.0717 52.2875C93.1841 52.2875 90.8433 54.6212 90.8433 57.5C90.8433 60.3787 93.1841 62.7124 96.0717 62.7124Z" fill="url(#paint27_linear_144_1764)"/>
</g>
<mask id="mask14_144_1764" style="mask-type:alpha" maskUnits="userSpaceOnUse" x="121" y="52" width="11" height="11">
<path d="M126.353 62.7124C129.24 62.7124 131.581 60.3787 131.581 57.5C131.581 54.6212 129.24 52.2875 126.353 52.2875C123.465 52.2875 121.124 54.6212 121.124 57.5C121.124 60.3787 123.465 62.7124 126.353 62.7124Z" fill="url(#paint28_linear_144_1764)"/>
</mask>
<g mask="url(#mask14_144_1764)">
<path d="M126.353 62.7124C129.24 62.7124 131.581 60.3787 131.581 57.5C131.581 54.6212 129.24 52.2875 126.353 52.2875C123.465 52.2875 121.124 54.6212 121.124 57.5C121.124 60.3787 123.465 62.7124 126.353 62.7124Z" fill="url(#paint29_linear_144_1764)"/>
</g>
<mask id="mask15_144_1764" style="mask-type:alpha" maskUnits="userSpaceOnUse" x="0" y="78" width="11" height="11">
<path d="M5.22838 88.8833C8.11594 88.8833 10.4568 86.5496 10.4568 83.6708C10.4568 80.7921 8.11594 78.4584 5.22838 78.4584C2.34082 78.4584 0 80.7921 0 83.6708C0 86.5496 2.34082 88.8833 5.22838 88.8833Z" fill="url(#paint30_linear_144_1764)"/>
</mask>
<g mask="url(#mask15_144_1764)">
<path d="M5.22838 88.8833C8.11594 88.8833 10.4568 86.5496 10.4568 83.6708C10.4568 80.7921 8.11594 78.4584 5.22838 78.4584C2.34082 78.4584 0 80.7921 0 83.6708C0 86.5496 2.34082 88.8833 5.22838 88.8833Z" fill="url(#paint31_linear_144_1764)"/>
</g>
<mask id="mask16_144_1764" style="mask-type:alpha" maskUnits="userSpaceOnUse" x="30" y="78" width="11" height="11">
<path d="M35.5094 88.8833C38.397 88.8833 40.7378 86.5496 40.7378 83.6708C40.7378 80.7921 38.397 78.4584 35.5094 78.4584C32.6218 78.4584 30.281 80.7921 30.281 83.6708C30.281 86.5496 32.6218 88.8833 35.5094 88.8833Z" fill="url(#paint32_linear_144_1764)"/>
</mask>
<g mask="url(#mask16_144_1764)">
<path d="M35.5094 88.8833C38.397 88.8833 40.7378 86.5496 40.7378 83.6708C40.7378 80.7921 38.397 78.4584 35.5094 78.4584C32.6218 78.4584 30.281 80.7921 30.281 83.6708C30.281 86.5496 32.6218 88.8833 35.5094 88.8833Z" fill="url(#paint33_linear_144_1764)"/>
</g>
<mask id="mask17_144_1764" style="mask-type:alpha" maskUnits="userSpaceOnUse" x="60" y="78" width="12" height="11">
<path d="M65.7905 88.8833C68.6781 88.8833 71.0189 86.5496 71.0189 83.6708C71.0189 80.7921 68.6781 78.4584 65.7905 78.4584C62.903 78.4584 60.5621 80.7921 60.5621 83.6708C60.5621 86.5496 62.903 88.8833 65.7905 88.8833Z" fill="url(#paint34_linear_144_1764)"/>
</mask>
<g mask="url(#mask17_144_1764)">
<path d="M65.7905 88.8833C68.6781 88.8833 71.0189 86.5496 71.0189 83.6708C71.0189 80.7921 68.6781 78.4584 65.7905 78.4584C62.903 78.4584 60.5621 80.7921 60.5621 83.6708C60.5621 86.5496 62.903 88.8833 65.7905 88.8833Z" fill="url(#paint35_linear_144_1764)"/>
</g>
<mask id="mask18_144_1764" style="mask-type:alpha" maskUnits="userSpaceOnUse" x="90" y="78" width="12" height="11">
<path d="M96.0717 88.8833C98.9592 88.8833 101.3 86.5496 101.3 83.6708C101.3 80.7921 98.9592 78.4584 96.0717 78.4584C93.1841 78.4584 90.8433 80.7921 90.8433 83.6708C90.8433 86.5496 93.1841 88.8833 96.0717 88.8833Z" fill="url(#paint36_linear_144_1764)"/>
</mask>
<g mask="url(#mask18_144_1764)">
<path d="M96.0717 88.8833C98.9592 88.8833 101.3 86.5496 101.3 83.6708C101.3 80.7921 98.9592 78.4584 96.0717 78.4584C93.1841 78.4584 90.8433 80.7921 90.8433 83.6708C90.8433 86.5496 93.1841 88.8833 96.0717 88.8833Z" fill="url(#paint37_linear_144_1764)"/>
</g>
<mask id="mask19_144_1764" style="mask-type:alpha" maskUnits="userSpaceOnUse" x="121" y="78" width="11" height="11">
<path d="M126.353 88.8833C129.24 88.8833 131.581 86.5496 131.581 83.6708C131.581 80.7921 129.24 78.4584 126.353 78.4584C123.465 78.4584 121.124 80.7921 121.124 83.6708C121.124 86.5496 123.465 88.8833 126.353 88.8833Z" fill="url(#paint38_linear_144_1764)"/>
</mask>
<g mask="url(#mask19_144_1764)">
<path d="M126.353 88.8833C129.24 88.8833 131.581 86.5496 131.581 83.6708C131.581 80.7921 129.24 78.4584 126.353 78.4584C123.465 78.4584 121.124 80.7921 121.124 83.6708C121.124 86.5496 123.465 88.8833 126.353 88.8833Z" fill="url(#paint39_linear_144_1764)"/>
</g>
<mask id="mask20_144_1764" style="mask-type:alpha" maskUnits="userSpaceOnUse" x="0" y="104" width="11" height="11">
<path d="M5.22838 115C8.11594 115 10.4568 112.666 10.4568 109.788C10.4568 106.909 8.11594 104.575 5.22838 104.575C2.34082 104.575 0 106.909 0 109.788C0 112.666 2.34082 115 5.22838 115Z" fill="url(#paint40_linear_144_1764)"/>
</mask>
<g mask="url(#mask20_144_1764)">
<path d="M5.22838 115C8.11594 115 10.4568 112.666 10.4568 109.788C10.4568 106.909 8.11594 104.575 5.22838 104.575C2.34082 104.575 0 106.909 0 109.788C0 112.666 2.34082 115 5.22838 115Z" fill="url(#paint41_linear_144_1764)"/>
</g>
<mask id="mask21_144_1764" style="mask-type:alpha" maskUnits="userSpaceOnUse" x="30" y="104" width="11" height="11">
<path d="M35.5094 115C38.397 115 40.7378 112.666 40.7378 109.788C40.7378 106.909 38.397 104.575 35.5094 104.575C32.6218 104.575 30.281 106.909 30.281 109.788C30.281 112.666 32.6218 115 35.5094 115Z" fill="url(#paint42_linear_144_1764)"/>
</mask>
<g mask="url(#mask21_144_1764)">
<path d="M35.5094 115C38.397 115 40.7378 112.666 40.7378 109.788C40.7378 106.909 38.397 104.575 35.5094 104.575C32.6218 104.575 30.281 106.909 30.281 109.788C30.281 112.666 32.6218 115 35.5094 115Z" fill="url(#paint43_linear_144_1764)"/>
</g>
<mask id="mask22_144_1764" style="mask-type:alpha" maskUnits="userSpaceOnUse" x="60" y="104" width="12" height="11">
<path d="M65.7905 115C68.6781 115 71.0189 112.666 71.0189 109.788C71.0189 106.909 68.6781 104.575 65.7905 104.575C62.903 104.575 60.5621 106.909 60.5621 109.788C60.5621 112.666 62.903 115 65.7905 115Z" fill="url(#paint44_linear_144_1764)"/>
</mask>
<g mask="url(#mask22_144_1764)">
<path d="M65.7905 115C68.6781 115 71.0189 112.666 71.0189 109.788C71.0189 106.909 68.6781 104.575 65.7905 104.575C62.903 104.575 60.5621 106.909 60.5621 109.788C60.5621 112.666 62.903 115 65.7905 115Z" fill="url(#paint45_linear_144_1764)"/>
</g>
<mask id="mask23_144_1764" style="mask-type:alpha" maskUnits="userSpaceOnUse" x="90" y="104" width="12" height="11">
<path d="M96.0717 115C98.9592 115 101.3 112.666 101.3 109.788C101.3 106.909 98.9592 104.575 96.0717 104.575C93.1841 104.575 90.8433 106.909 90.8433 109.788C90.8433 112.666 93.1841 115 96.0717 115Z" fill="url(#paint46_linear_144_1764)"/>
</mask>
<g mask="url(#mask23_144_1764)">
<path d="M96.0717 115C98.9592 115 101.3 112.666 101.3 109.788C101.3 106.909 98.9592 104.575 96.0717 104.575C93.1841 104.575 90.8433 106.909 90.8433 109.788C90.8433 112.666 93.1841 115 96.0717 115Z" fill="url(#paint47_linear_144_1764)"/>
</g>
<mask id="mask24_144_1764" style="mask-type:alpha" maskUnits="userSpaceOnUse" x="121" y="104" width="11" height="11">
<path d="M126.353 115C129.24 115 131.581 112.666 131.581 109.788C131.581 106.909 129.24 104.575 126.353 104.575C123.465 104.575 121.124 106.909 121.124 109.788C121.124 112.666 123.465 115 126.353 115Z" fill="url(#paint48_linear_144_1764)"/>
</mask>
<g mask="url(#mask24_144_1764)">
<path d="M126.353 115C129.24 115 131.581 112.666 131.581 109.788C131.581 106.909 129.24 104.575 126.353 104.575C123.465 104.575 121.124 106.909 121.124 109.788C121.124 112.666 123.465 115 126.353 115Z" fill="url(#paint49_linear_144_1764)"/>
</g>
</g>
<defs>
<linearGradient id="paint0_linear_144_1764" x1="54.996" y1="131.134" x2="-16.4057" y2="-50.67" gradientUnits="userSpaceOnUse">
<stop stop-color="white"/>
<stop offset="1" stop-color="white"/>
</linearGradient>
<linearGradient id="paint1_linear_144_1764" x1="54.996" y1="131.134" x2="-16.4057" y2="-50.67" gradientUnits="userSpaceOnUse">
<stop stop-color="white"/>
<stop offset="1" stop-color="white"/>
</linearGradient>
<linearGradient id="paint2_linear_144_1764" x1="85.2771" y1="131.134" x2="13.8754" y2="-50.67" gradientUnits="userSpaceOnUse">
<stop stop-color="white"/>
<stop offset="1" stop-color="white"/>
</linearGradient>
<linearGradient id="paint3_linear_144_1764" x1="85.2771" y1="131.134" x2="13.8754" y2="-50.67" gradientUnits="userSpaceOnUse">
<stop stop-color="white"/>
<stop offset="1" stop-color="white"/>
</linearGradient>
<linearGradient id="paint4_linear_144_1764" x1="115.558" y1="131.134" x2="44.1566" y2="-50.67" gradientUnits="userSpaceOnUse">
<stop stop-color="white"/>
<stop offset="1" stop-color="white"/>
</linearGradient>
<linearGradient id="paint5_linear_144_1764" x1="115.558" y1="131.134" x2="44.1566" y2="-50.67" gradientUnits="userSpaceOnUse">
<stop stop-color="white"/>
<stop offset="1" stop-color="white"/>
</linearGradient>
<linearGradient id="paint6_linear_144_1764" x1="145.839" y1="131.134" x2="74.4377" y2="-50.67" gradientUnits="userSpaceOnUse">
<stop stop-color="white"/>
<stop offset="1" stop-color="white"/>
</linearGradient>
<linearGradient id="paint7_linear_144_1764" x1="145.839" y1="131.134" x2="74.4377" y2="-50.67" gradientUnits="userSpaceOnUse">
<stop stop-color="white"/>
<stop offset="1" stop-color="white"/>
</linearGradient>
<linearGradient id="paint8_linear_144_1764" x1="176.12" y1="131.134" x2="104.719" y2="-50.67" gradientUnits="userSpaceOnUse">
<stop stop-color="white"/>
<stop offset="1" stop-color="white"/>
</linearGradient>
<linearGradient id="paint9_linear_144_1764" x1="176.12" y1="131.134" x2="104.719" y2="-50.67" gradientUnits="userSpaceOnUse">
<stop stop-color="white"/>
<stop offset="1" stop-color="white"/>
</linearGradient>
<linearGradient id="paint10_linear_144_1764" x1="54.996" y1="157.303" x2="-16.4045" y2="-24.4991" gradientUnits="userSpaceOnUse">
<stop stop-color="white"/>
<stop offset="1" stop-color="white"/>
</linearGradient>
<linearGradient id="paint11_linear_144_1764" x1="54.996" y1="157.303" x2="-16.4045" y2="-24.4991" gradientUnits="userSpaceOnUse">
<stop stop-color="white"/>
<stop offset="1" stop-color="white"/>
</linearGradient>
<linearGradient id="paint12_linear_144_1764" x1="85.2771" y1="157.303" x2="13.8767" y2="-24.4991" gradientUnits="userSpaceOnUse">
<stop stop-color="white"/>
<stop offset="1" stop-color="white"/>
</linearGradient>
<linearGradient id="paint13_linear_144_1764" x1="85.2771" y1="157.303" x2="13.8767" y2="-24.4991" gradientUnits="userSpaceOnUse">
<stop stop-color="white"/>
<stop offset="1" stop-color="white"/>
</linearGradient>
<linearGradient id="paint14_linear_144_1764" x1="115.558" y1="157.303" x2="44.1578" y2="-24.4991" gradientUnits="userSpaceOnUse">
<stop stop-color="white"/>
<stop offset="1" stop-color="white"/>
</linearGradient>
<linearGradient id="paint15_linear_144_1764" x1="115.558" y1="157.303" x2="44.1578" y2="-24.4991" gradientUnits="userSpaceOnUse">
<stop stop-color="white"/>
<stop offset="1" stop-color="white"/>
</linearGradient>
<linearGradient id="paint16_linear_144_1764" x1="145.839" y1="157.303" x2="74.4389" y2="-24.4991" gradientUnits="userSpaceOnUse">
<stop stop-color="white"/>
<stop offset="1" stop-color="white"/>
</linearGradient>
<linearGradient id="paint17_linear_144_1764" x1="145.839" y1="157.303" x2="74.4389" y2="-24.4991" gradientUnits="userSpaceOnUse">
<stop stop-color="white"/>
<stop offset="1" stop-color="white"/>
</linearGradient>
<linearGradient id="paint18_linear_144_1764" x1="176.12" y1="157.303" x2="104.72" y2="-24.4991" gradientUnits="userSpaceOnUse">
<stop stop-color="white"/>
<stop offset="1" stop-color="white"/>
</linearGradient>
<linearGradient id="paint19_linear_144_1764" x1="176.12" y1="157.303" x2="104.72" y2="-24.4991" gradientUnits="userSpaceOnUse">
<stop stop-color="white"/>
<stop offset="1" stop-color="white"/>
</linearGradient>
<linearGradient id="paint20_linear_144_1764" x1="54.996" y1="183.421" x2="-16.4057" y2="1.61749" gradientUnits="userSpaceOnUse">
<stop stop-color="white"/>
<stop offset="1" stop-color="white"/>
</linearGradient>
<linearGradient id="paint21_linear_144_1764" x1="54.996" y1="183.421" x2="-16.4057" y2="1.61749" gradientUnits="userSpaceOnUse">
<stop stop-color="white"/>
<stop offset="1" stop-color="white"/>
</linearGradient>
<linearGradient id="paint22_linear_144_1764" x1="85.2771" y1="183.421" x2="13.8754" y2="1.61743" gradientUnits="userSpaceOnUse">
<stop stop-color="white"/>
<stop offset="1" stop-color="white"/>
</linearGradient>
<linearGradient id="paint23_linear_144_1764" x1="85.2771" y1="183.421" x2="13.8754" y2="1.61743" gradientUnits="userSpaceOnUse">
<stop stop-color="white"/>
<stop offset="1" stop-color="white"/>
</linearGradient>
<linearGradient id="paint24_linear_144_1764" x1="115.558" y1="183.421" x2="44.1566" y2="1.61743" gradientUnits="userSpaceOnUse">
<stop stop-color="white"/>
<stop offset="1" stop-color="white"/>
</linearGradient>
<linearGradient id="paint25_linear_144_1764" x1="115.558" y1="183.421" x2="44.1566" y2="1.61743" gradientUnits="userSpaceOnUse">
<stop stop-color="white"/>
<stop offset="1" stop-color="white"/>
</linearGradient>
<linearGradient id="paint26_linear_144_1764" x1="145.839" y1="183.421" x2="74.4377" y2="1.61743" gradientUnits="userSpaceOnUse">
<stop stop-color="white"/>
<stop offset="1" stop-color="white"/>
</linearGradient>
<linearGradient id="paint27_linear_144_1764" x1="145.839" y1="183.421" x2="74.4377" y2="1.61743" gradientUnits="userSpaceOnUse">
<stop stop-color="white"/>
<stop offset="1" stop-color="white"/>
</linearGradient>
<linearGradient id="paint28_linear_144_1764" x1="176.12" y1="183.421" x2="104.719" y2="1.61743" gradientUnits="userSpaceOnUse">
<stop stop-color="white"/>
<stop offset="1" stop-color="white"/>
</linearGradient>
<linearGradient id="paint29_linear_144_1764" x1="176.12" y1="183.421" x2="104.719" y2="1.61743" gradientUnits="userSpaceOnUse">
<stop stop-color="white"/>
<stop offset="1" stop-color="white"/>
</linearGradient>
<linearGradient id="paint30_linear_144_1764" x1="54.996" y1="209.592" x2="-16.4057" y2="27.7884" gradientUnits="userSpaceOnUse">
<stop stop-color="white"/>
<stop offset="1" stop-color="white"/>
</linearGradient>
<linearGradient id="paint31_linear_144_1764" x1="54.996" y1="209.592" x2="-16.4057" y2="27.7884" gradientUnits="userSpaceOnUse">
<stop stop-color="white"/>
<stop offset="1" stop-color="white"/>
</linearGradient>
<linearGradient id="paint32_linear_144_1764" x1="85.2771" y1="209.592" x2="13.8754" y2="27.7883" gradientUnits="userSpaceOnUse">
<stop stop-color="white"/>
<stop offset="1" stop-color="white"/>
</linearGradient>
<linearGradient id="paint33_linear_144_1764" x1="85.2771" y1="209.592" x2="13.8754" y2="27.7883" gradientUnits="userSpaceOnUse">
<stop stop-color="white"/>
<stop offset="1" stop-color="white"/>
</linearGradient>
<linearGradient id="paint34_linear_144_1764" x1="115.558" y1="209.592" x2="44.1566" y2="27.7883" gradientUnits="userSpaceOnUse">
<stop stop-color="white"/>
<stop offset="1" stop-color="white"/>
</linearGradient>
<linearGradient id="paint35_linear_144_1764" x1="115.558" y1="209.592" x2="44.1566" y2="27.7883" gradientUnits="userSpaceOnUse">
<stop stop-color="white"/>
<stop offset="1" stop-color="white"/>
</linearGradient>
<linearGradient id="paint36_linear_144_1764" x1="145.839" y1="209.592" x2="74.4377" y2="27.7883" gradientUnits="userSpaceOnUse">
<stop stop-color="white"/>
<stop offset="1" stop-color="white"/>
</linearGradient>
<linearGradient id="paint37_linear_144_1764" x1="145.839" y1="209.592" x2="74.4377" y2="27.7883" gradientUnits="userSpaceOnUse">
<stop stop-color="white"/>
<stop offset="1" stop-color="white"/>
</linearGradient>
<linearGradient id="paint38_linear_144_1764" x1="176.12" y1="209.592" x2="104.719" y2="27.7883" gradientUnits="userSpaceOnUse">
<stop stop-color="white"/>
<stop offset="1" stop-color="white"/>
</linearGradient>
<linearGradient id="paint39_linear_144_1764" x1="176.12" y1="209.592" x2="104.719" y2="27.7883" gradientUnits="userSpaceOnUse">
<stop stop-color="white"/>
<stop offset="1" stop-color="white"/>
</linearGradient>
<linearGradient id="paint40_linear_144_1764" x1="54.996" y1="235.709" x2="-16.4057" y2="53.9051" gradientUnits="userSpaceOnUse">
<stop stop-color="white"/>
<stop offset="1" stop-color="white"/>
</linearGradient>
<linearGradient id="paint41_linear_144_1764" x1="54.996" y1="235.709" x2="-16.4057" y2="53.9051" gradientUnits="userSpaceOnUse">
<stop stop-color="white"/>
<stop offset="1" stop-color="white"/>
</linearGradient>
<linearGradient id="paint42_linear_144_1764" x1="85.2771" y1="235.709" x2="13.8754" y2="53.905" gradientUnits="userSpaceOnUse">
<stop stop-color="white"/>
<stop offset="1" stop-color="white"/>
</linearGradient>
<linearGradient id="paint43_linear_144_1764" x1="85.2771" y1="235.709" x2="13.8754" y2="53.905" gradientUnits="userSpaceOnUse">
<stop stop-color="white"/>
<stop offset="1" stop-color="white"/>
</linearGradient>
<linearGradient id="paint44_linear_144_1764" x1="115.558" y1="235.709" x2="44.1566" y2="53.905" gradientUnits="userSpaceOnUse">
<stop stop-color="white"/>
<stop offset="1" stop-color="white"/>
</linearGradient>
<linearGradient id="paint45_linear_144_1764" x1="115.558" y1="235.709" x2="44.1566" y2="53.905" gradientUnits="userSpaceOnUse">
<stop stop-color="white"/>
<stop offset="1" stop-color="white"/>
</linearGradient>
<linearGradient id="paint46_linear_144_1764" x1="145.839" y1="235.709" x2="74.4377" y2="53.905" gradientUnits="userSpaceOnUse">
<stop stop-color="white"/>
<stop offset="1" stop-color="white"/>
</linearGradient>
<linearGradient id="paint47_linear_144_1764" x1="145.839" y1="235.709" x2="74.4377" y2="53.905" gradientUnits="userSpaceOnUse">
<stop stop-color="white"/>
<stop offset="1" stop-color="white"/>
</linearGradient>
<linearGradient id="paint48_linear_144_1764" x1="176.12" y1="235.709" x2="104.719" y2="53.905" gradientUnits="userSpaceOnUse">
<stop stop-color="white"/>
<stop offset="1" stop-color="white"/>
</linearGradient>
<linearGradient id="paint49_linear_144_1764" x1="176.12" y1="235.709" x2="104.719" y2="53.905" gradientUnits="userSpaceOnUse">
<stop stop-color="white"/>
<stop offset="1" stop-color="white"/>
</linearGradient>
</defs>
</svg>
