<svg width="337" height="20" viewBox="0 0 337 20" fill="none" xmlns="http://www.w3.org/2000/svg">
<g opacity="0.4">
<path d="M27.6911 8.76277L6.64522 8.76277L11.2689 4.13905C11.9067 3.50129 11.9067 2.54466 11.2689 1.90691C10.6312 1.26915 9.67456 1.26915 9.03681 1.90691L1.70262 9.24109C1.06487 9.87884 1.06487 10.8355 1.70262 11.4732L9.03681 18.8074C9.67456 19.4452 10.6312 19.4452 11.2689 18.8074C11.9067 18.1697 11.9067 17.213 11.2689 16.5753L6.64522 11.9515L27.6911 11.9515C28.4883 11.9515 29.2855 11.3138 29.2855 10.3572C29.2855 9.40053 28.4883 8.76277 27.6911 8.76277Z" fill="#458FF6"/>
</g>
<path d="M308.737 11.2372L329.783 11.2372L325.16 15.861C324.522 16.4987 324.522 17.4553 325.16 18.0931C325.797 18.7308 326.754 18.7308 327.392 18.0931L334.726 10.7589C335.364 10.1212 335.364 9.16452 334.726 8.52677L327.392 1.19258C326.754 0.554828 325.797 0.554828 325.16 1.19258C324.522 1.83034 324.522 2.78697 325.16 3.42473L329.783 8.04845L308.737 8.04845C307.94 8.04845 307.143 8.6862 307.143 9.64284C307.143 10.5995 307.94 11.2372 308.737 11.2372Z" fill="#458FF6"/>
<circle opacity="0.3" cx="154" cy="10" r="5" fill="#5B9BF3"/>
<circle opacity="0.3" cx="182" cy="10" r="5" fill="#5B9BF3"/>
<circle opacity="0.3" cx="210" cy="10" r="5" fill="#5B9BF3"/>
<circle cx="126" cy="10" r="5" fill="#5B9BF3"/>
</svg>
